/* XPM */
static char *x86info_xpm[] = {
/* columns rows colors chars-per-pixel */
"32 32 6 1",
"  c Black",
". c Blue",
"X c #00bf00",
"o c Red",
"O c Yellow",
"+ c Gray100",
/* pixels */		  
"                                ",
" ++++++++++++++++++++++++++++++ ",
" +++++++oooooooooooo+++++++++++ ",
" +++++++oooooooooooo+++++++++++ ",
" +++++++oooooooooooo+++++++++++ ",
" ++++oooooooooooooooooo++++++++ ",
" ++++oooo++++++++++oooo++++++++ ",
" ++++oooo++++++++++oooo++++++++ ",
" ++++oooo++++++++++oooo++++++++ ",
" ++++oooo++++++++++oooo++++++++ ",
" ++++++++++++++++++oooo++++++++ ",
" ++++++++++++++++++oooo++++++++ ",
" ++++++++++++++++++oooo++++++++ ",
" ++++++++++++++++++oooo++++++++ ",
" ++++++++++++++++++oooo++++++++ ",
" ++++++++++++++++++oooo++++++++ ",
" ++++++++++++++oooooooo++++++++ ",
" ++++++++++++++ooooo+++++++++++ ",
" ++++++++++++++ooooo+++++++++++ ",
" +++++++++++oooooooo+++++++++++ ",
" +++++++++++oooo+++++++++++++++ ",
" +++++++++++oooo+++++++++++++++ ",
" +++++++++++oooo+++++++++++++++ ",
" ++++++++++++++++++++++++++++++ ",
" ++++++++++++++++++++++++++++++ ",
" +++++++++++oooo+++++++++++++++ ",
" +++++++++++oooo+++++++++++++++ ",
" +++++++++++oooo+++++++++++++++ ",
" +++++++++++oooo+++++++++++++++ ",
" ++++++++++++++++++++++++++++++ ",
" ++++++++++++++++++++++++++++++ ",
"                                "
};      
        